<svg enable-background="new 0 0 841.89 428.608" fill="#48AB79" height="428.608px" id="Layer_1" version="1.1" viewBox="0 0 841.89 428.608" width="841.89px" x="0px" xmlns="http://www.w3.org/2000/svg" y="0px"><g><polygon points="697.537,133.64 696.242,133.64 696.242,131.991 697.537,131.969 697.537,133.64  "></polygon><path d="M95.838,167.313c0.113,6.907,0.206,14.337,0.31,21.694c3.077-0.996,6.51-1.953,10.028-2.325   c5.996-10.075,5.505-11.82-1.596-20.359C101.561,166.362,98.448,166.807,95.838,167.313L95.838,167.313z M103.371,174.535   L103.371,174.535c-1.689,0.456-3.04,0.906-4.332,1.34c-0.02-1.655-0.048-2.984-0.076-4.279c1.312,0,2.598,0,4.391-0.062   C103.354,172.419,103.354,173.263,103.371,174.535L103.371,174.535z"></path><path d="M84.958,168.372c-2.666,0-5.227,0.506-7.889,0.901c-0.687,11.252-1.512,14.365,6.02,22.92   c2.159-0.917,4.371-1.817,6.501-2.752C89.064,180.783,88.549,175.594,84.958,168.372L84.958,168.372z M80.342,183.525   L80.342,183.525l-0.096-9.997c0.816,0,1.757,0.377,3.052,0.861C81.701,183.491,81.701,183.491,80.342,183.525L80.342,183.525z"></path><path d="M99.039,175.875c1.292-0.434,2.643-0.884,4.332-1.34c-0.017-1.272-0.017-2.116-0.017-3   c-1.793,0.062-3.08,0.062-4.391,0.062C98.991,172.892,99.019,174.22,99.039,175.875L99.039,175.875z"></path><path d="M718.736,206.548c9.535-3.175,6.248-18.762,5.256-26.023c-3.039-0.451-6.119-0.451-9.141-0.282   c-3.434,7.358-0.637,16.814-0.523,25.01C715.623,205.743,716.975,206.115,718.736,206.548L718.736,206.548z M716.596,184.916   L716.596,184.916c0.957-0.035,1.803-0.035,3.119-0.035c0.057,1.295,0.484,2.995,0.975,4.65c-1.818,0.957-3.49,1.84-5.219,2.758   C715.809,189.723,716.314,187.055,716.596,184.916L716.596,184.916z"></path><path d="M740.576,175.532c-2.646,0.022-5.291,0.022-7.914,0.507c0,0.94,0.033,1.784,0.09,3.079   c2.217,0.416,4.334,0.788,6.996,1.599c0,2.195,0.08,4.278,0.113,6.451c-1.762,0.079-3.523,0.079-5.27,0.079   c-0.432-1.672-0.883-3.456-1.367-4.694c0.861-0.468,1.744-0.901,2.59-1.408c-1.729-0.788-3.49-1.238-4.807-1.61   c-0.316,9.097,0.674,16.004,2.082,24.239C744.895,201.386,748.947,183.638,740.576,175.532L740.576,175.532z"></path><path d="M834.029,356.394c1.07-15.998,8.686-30.779-1.52-44.025c-14.443,0.146-34.563,1.7-39.982-12.936   c-9.322-9.766-18.176-18.812-25.365-29.9c-15.816-63.417-2.533-140.204,4.881-203.998c3.805-5.252,3.805-5.252,6.322-12.159   c-0.266-16.882-0.734-18.12-17.338-17.523c0,27.678,0,27.678-2.348,45.105c-17.693,46.862-23.637,55.667-24.465,59.606   c-41.295,13.978-48.234-68.596-49.512-93.712c-5.213,0.073-10.037,0.146-14.822,0.58c0.523,6.113,0.209,12.159,4.672,16.454   c3.619,9.457,12.986,53.915,19.381,74.185c6.361,44.897,11.146,72.57-14.467,111.799c-8.646,5.798-17.332,11.534-25.533,17.658   c-1.311-1.694-2.623-2.983-3.975-4.244c0.863-1.295,1.723-2.606,2.961-3.434c-1.271-0.468-2.154-0.395-3.018-0.395l-0.055-3.136   l-3.039,0.079c-6.457-22.854-14.227-43.135-24.094-64.109h-3.113c-16.926-21.447-38.012-29.439-64.334-35.142   c6.811-14.686,13.977-29.136,21.182-43.547h2.662c10.617-22.195,30.471-37.951,44.639-58.159   c6.018-3.547,30.674-19.06,31.951-23.789c-20.191-5.308-41.068,4.447-61.582,3.862c2.928-6.507,8.557-13.037,8.467-20.45   c-16.684-4.166-31.09-1.295-48.09-0.586l-0.072-3.147h3.096c-4.301-20.698-37.242-6.901-54.377-10.059   c-49.395-0.619-49.395-0.619-127.979,1.706c-44.495,8.804-86.67,20.642-129.296,35.035c-14.278,8.911-28.134,17.749-41.97,26.542   l0.075,5.691h3.048c0.458,1.199,0.861,2.477,1.773,3.805c-17.346,6.681-30.675,21.165-46.276,30.436   c0.883,1.295,1.753,2.995,3.172,4.802c39.755,2.061,66.217,21.069,101.058,39.713c1.38,3.4,7.113,6.851,11.568,13.189   c-44.194-2.769-65.235,19.105-84.419,57.022c-2.794,15.57-4.68,35.12-11.472,49.44c-2.15,0.483-4.306,1.014-6.087,1.48   c-3.566-4.352-3.566-4.352-38.183-71.354c-11.934-36.64-8.199-79.921-6.152-118.048c5.46-15.682,13.181-29.642,11.154-46.53   c-20.273-8.348-15.592,13.207-15.79,27.954c-9.24,24.391-17.166,49.547-29.972,72.16c-18.331,2.494-18.959-10.054-28.303-24.673   C58.662,83.869,56.683,67.375,55.38,41.009c-2.646-0.405-5.247-0.732-7.441-1.16c-11.022,23.906,7.627,73.02,16.709,95.012   c10.676,42.663,11.396,90.302,6.35,133.601c-7.58,19.589-14.7,39.623-21.822,59.589c-15.26,2.398-30.954,4.802-46.273,4.915   c-5.452,13.993-0.479,24.215,4.062,37.597c4.688,19.869,4.688,19.869,7.25,45.831c10.132,4.654,29.26-3.445,40.59-5.775   c43.643,0.376,87.355,0.619,131.09,1.333c81.058-13.7,167.27-7.018,247.823,3.959c81.791,2.397,164.307-2.197,246.07,2.364   c10.992,3.264,22.387,6.658,33.848,10.334c18.271-1.971,35.682-6.113,53.582-10.65l-0.057-2.988   c23.604-2.021,46.684-5.461,70.223-9.21c0.449-1.334,0.811-2.155,1.277-3.062h2.629   C841.91,386.177,839.039,372.363,834.029,356.394L834.029,356.394z M772.51,39.59L772.51,39.59l0.113,11.653   c-0.846,0.444-1.65,1.345-2.141,2.263c-0.939-5.236-1.873-9.918-2.83-14.687C768.963,38.819,770.709,39.19,772.51,39.59   L772.51,39.59z M565.455,161.448L565.455,161.448c-1.316,1.706-2.588,3.467-3.906,5.212c7.432,2.556,15.762,2.387,24.973,5.759   c-1.723,0.867-3.053,1.711-4.336,2.572c6.98,0.805,14.451,1.2,20.191,5.365c0.074,5.218-12.086,8.444-16.848,11.466   c6.941-0.062,17.484-0.636,22.629-4.576l3.113,3.034c-0.787,6.474-3.715,11.653-3.715,15.953c3.49-2.612,5.252-3.473,6.457-7.831   c0.898,0,2.211-0.056,3.523,0.378c0.078,6.585-1.633,9.569-4.617,14.821c0.941,0,1.729-0.04,2.629,0.417   c5.18-5.274,5.18-5.274,6.492-4.857c1.463,9.474-1.555,10.769-4.111,19.527c0.941,1.239,0.941,1.239,7.342-6.529   c1.4,4.633,2.791,9.439,4.57,14.106c-1.199,1.785-2.51,3.569-3.32,5.635c1.688,0.428,3.473,0.935,5.611,1.307   c1.447,6.866,1.932,9.929-0.563,16.813c1.688,0,3.449,0,5.668,0.378c0.09,5.629,0.09,5.629-2.854,11.388   c2.531-0.619,5.234-0.991,8.273-1.446c0.434,0.811,0.885,1.705,1.295,2.499c-8.686,6.169-12.963,7.948-23.885,10.712   c0.531,0.951,1.408,1.745,2.275,3.073c8.252-0.523,15.699-1.986,22.623-6.845c-1.729,1.779-3,3.94-4.238,6.136l9.529-0.151   c-26.416,14.258-47.301,21.069-77.484,21.429c-20.602-8.466-20.602-8.466-21.051-9.727c0.82-1.346,2.1-2.606,3.41-3.918   c-2.623-1.256-8.928-12.474-8.928-14.613c8.781,3.772,8.781,3.772,13.6,3.749c0.811-1.738-13.229-8.911-12.047-17.123   c3.063,1.665,3.063,1.665,10.004,0.691c-3.135-5.161-3.135-5.161-10.623-11.105c-2.396-13.363-10.391-21.914-11.889-34.878   c-1.334-0.438-2.178-0.883-3.061-1.227c0.674-11.309,0.674-11.309,2.797-16.128c-1.311-0.417-2.629-0.417-3.451-0.417   c-0.844,2.218-1.729,4.391-2.555,7.02c0.191,13.848,0.191,13.848-1.068,14.252c-9.492-15.845-10.826-22.752,2.047-37.591   c-0.449-1.351-0.922-2.651-0.979-3.906c-7.24,10.88-16.662,21.857-8.139,35.57c-12.705,0.175-18.947-7.07-22.574-17.878   c-1.592,8.292,1.465,12.553,7.633,18.086c-7.352,2.292-14.742,4.875-22.133,7.656c-0.395,0.922-0.885,1.727-1.277,3.039   c-5.195,0.529-10.002,1.03-14.822,1.424l0.057,3.979c3.057,0.451,6.586,0.726,10.076,1.559c-4.188,13.543-22.629,6.378-31.016,2.1   c-0.846,0.445-1.705,0.885-2.117,1.762c7.127,10.752,20.693,11.427,31.574,6.119c-1.223,6.547-8.236,8.364-13.865,10.561   c-1.238,3.135-1.238,3.135,0.508,6.136c4.334-2.308,8.701-4.07,13.037-5.82c7.992,10.7-8.445,19.104-5.326,25.127   c6.096-3.563,6.096-3.563,9.568-8.331c2.625,2.517,0.936,6.418,0.525,9.925c3.867-0.034,5.588-9.102,6.865-12.643   c13.1,5.472,30.471-7.752,22.326-21.503c-2.629-0.771-4.801-1.633-7.053-2.05c-3.789,5.651-1.092,12.053,0.787,18.582   c-18.35,1.126-26.416-13.437-21.463-29.964c1.762,1.239,3.547,2.533,5.402,3.771c0.299-3.022,0.717-6.119,1.088-9.063   c1.277-0.489,3.039-0.489,4.768-0.489c0.039,1.688,0.547,3.394,1.014,5.516c0.826,0,1.729-0.022,2.629,0.49   c-0.113-6.04-0.113-6.04,2.025-10.025c22.213-2.848,31.5,1.261,37.934,23.343c-3.939,0.94-7.391,1.745-10.902,2.646   c6.625,1.328,6.625,1.328,11.859,5.123c-0.41,1.745-0.354,3.884-0.354,6.057c-3.063-1.672-3.063-1.672-6.514-1.199   c6.209,4.639,7.486,5.967,8.428,13.262c-3.867-0.822-7.43-4.666-18.35-7.536c-0.941,0.443-1.393,0.86-1.803,1.345   c5.742,2.933,10.133,2.859,13.189,5.916c1.406,5.922,5.42,13.712-0.58,18.57c-2.742-8.162-4.166-15.047-12.496-16.696   c5.252,5.117,9.828,15.024,9.08,22.343c-2.18,1.807-2.18,1.807-4.393,0.939c-0.883-2.59-1.84-4.689-2.252-6.812   c-0.844,2.91-1.648,6.456-2.041,9.834c-0.957-6.924-2.01-17.186-10.342-19.758c10.791,21.109,1.277,29.53-20.484,31.579   c-1.768-0.434-3.119-0.906-4.391-1.295c0.75-4.768,11.051-18.355,6.266-19.55c-8.051,18.272-17.602,22.264-36.582,10.864   c3.523-1.374,3.523-1.374,6.473-6.158c-5.275-0.299-10.043-0.299-14.844-0.242c-3.152-3.827-3.152-3.827-4.07-9.04   c3.957,0.371,8.275,0.371,9.963-3.586c-4.316-0.377-8.746-0.748-13.086-1.143c-1.803-3.344-1.803-3.344-1.875-9.085   c4.789-0.034,4.789-0.034,5.617-1.313c-19.025-13.582-1.543-43.715,4.801-60.281c2.18,0.822,4.465,2.572,7.094,4.255   c1.311-26.732,16.133-29.659,36.02-45.06c3.006-1.368,6.047-2.252,9.57-3.169c0.449,0.896,0.883,1.745,1.723,3.074   c11.709-9.682,23.865-13.302,39.627-13.588c0,1.694,0.057,3.478,0.529,5.617C550.18,165.05,557.125,162.343,565.455,161.448   L565.455,161.448z M590.799,18.689L590.799,18.689c0.473,0.427,0.9,1.289,1.391,2.1c-3.885,7.031-6.863,11.782-8.09,19.172   c-30.014,7.375-60.016,18.159-89.152,25.427c-7.729,8.775-15.457,17.951-22.758,27.2c-26.475,43.625-43.229,90.549-62.635,136.685   c-5.415,23-8.41,50.713-19.915,71.275c10.076-55.948,24.106-111.151,37.667-166.272c2.209-28.589,5.119-41.615,7.061-84.047   c0.861-0.456,1.762-0.867,2.617-0.9v-3.023c30.234-18.126,60.816-22.533,95.768-23.771   C549.711,16.641,572.773,15.892,590.799,18.689L590.799,18.689z M390.526,244.279L390.526,244.279v-3.096h1.296l0.009,3   L390.526,244.279L390.526,244.279z M278.701,40.147L278.701,40.147c15.543,17.974,26.407,42.573,39.354,62.708   c12.297,31.854,27.635,67.165,30.841,101.779c-4.173-12.514-7.793-25.027-11.489-37.13c-13.63-35.288-36.146-79.628-69.25-100.709   c-4.071-8.207-13.282-10.245-15.554-17.174C261.682,44.239,267.761,38.633,278.701,40.147L278.701,40.147z M265.031,36.021   L265.031,36.021c-7.343,4.036-14.267,8.427-21.197,12.874c-0.425,1.728-0.425,3.45-0.351,5.156   c4.869,3.377,4.869,3.377,12.44,14.162c46.349,33.122,66.22,74.377,84.475,127.38c2.843,13.414,16.079,48.686,13.688,66.451   c-10.133-32.772-18.472-65.477-29.832-97.805c-5.834-10.318-11.672-20.619-17.498-30.92   c-24.821-20.879-51.697-37.355-80.327-52.587c-4.503-5.555-9.766-10.301-9.896-17.596   C229.076,53.809,249.357,36.229,265.031,36.021L265.031,36.021z M350.689,210.641L350.689,210.641l-0.065-4.408h1.332l0.084,4.408   H350.689L350.689,210.641z M354.299,276.326L354.299,276.326l0.028,3.039h-1.303v-2.973L354.299,276.326L354.299,276.326z    M351.541,266.418L351.541,266.418l0.104,8.669c-0.92-3.045-1.371-6.039-1.886-8.572L351.541,266.418L351.541,266.418z    M348.465,264.78L348.465,264.78l-0.049-2.68h1.324l0.019,2.646L348.465,264.78L348.465,264.78z M187.797,98.971L187.797,98.971   l-0.073-3.885c8.649-5.78,17.306-11.465,25.967-16.831c33.037,17.298,69.155,37.597,92.775,67.144   c6.268,11.579,28.19,47.262,23.566,56.758C301.618,144.145,243.652,123.772,187.797,98.971L187.797,98.971z M182.996,277.806   L182.996,277.806c7.861-0.095,12.384,8.934,22.007,6.603c-2.281-2.555-10.608-5.043-15.067-9.682   c6.024-8.309,8.886-19.661,9.638-29.607c1.725-0.484,3.486-0.936,5.682-0.936c0.451-1.351,1.276-2.156,2.091-3.073   c-1.742-1.277-1.742-1.277-6.518-0.36c1.641-7.391,1.894-14.709,8.01-19.083c-1.36-0.934-2.691-1.762-3.543-2.628   c2.586-4.346,5.59-7.031,10.354-8.753c-1.762-0.845-3.068-1.689-4.418-2.106c3.031-6.152,15.507-15.778,22.054-18.029   c-0.909-0.884-1.773-1.729-2.224-2.55c6.896-5.742,16.031-8.067,23.575-2.534c0.422-0.434,0.872-0.861,1.267-1.3   c-2.167-1.683-4.419-3.411-6.208-4.649c5.251-0.073,10.087,0.298,14.435-2.421c-2.252-1.165-2.252-1.165-3.132-3.805   c6.116,2.061,8.367,5.905,15.355,5.854c-1.733-1.277-3.124-2.555-4.407-3.883c36.358,6,42.373,29.344,53.329,59.831   c-1.772-0.361-3.048-0.304-4.396-0.304c-3.718-17.243-3.259-16.397-19.958-18.796c-0.909-5.179-0.909-5.179-4.473-8.556   c-2.065,4.768-2.065,4.768-1.632,7.391c-0.864,0.394-1.765,0.845-2.572,1.295c-1.079-11.618-1.079-11.618-2.401-12.513   c-0.808,3.879-1.641,8.258-1.979,12.53l-2.646,0.033c-0.948-4.722-1.877-9.08-2.843-13.301c-0.844-0.839-1.764-1.666-2.605-2.116   c0.926,6.399,1.939,12.907,2.86,18.931c8.319-0.468,17.064-0.653,25.797-0.767c11.483,9.829,10.909,28.01,4.098,40.13   c-10.496,0.186-15.767-2.331-14.613-14.016c2.185,0,4.359-0.035,6.941,0.394c-0.028-5.719-0.028-5.719-2.252-7.825   c-3.461,0.997-6.547,1.892-9.614,2.799c-1.277,2.966-2.055,6.022-2.89,9.096c-1.323,0-2.61,0.434-3.949,0.901   c0.076,1.745,0.076,3.45,0.495,5.178c1.314-0.899,3.08-1.333,4.853-1.778c0.506,5.173,1.463,10.763,2.428,16.341h1.726   c-0.515-2.943-0.543-6.063-0.563-9.006l2.646-0.057c2.234,3.811,4.438,8.202,7.121,12.457l-0.113-6.135   c5.694-1.712,6.164,1.654,10.985,1.615c-1.342-1.655-2.693-3.417-3.574-5.084c12.251-0.23,5.573-6.968,13.386-12.76   c-0.881-0.451-1.762-0.901-2.663-1.295l-0.047-2.945c4.334-3.923,4.334-3.923,5.637-3.624c2.823,14.748,6.015,21.52,9.212,34.974   c-1.661,2.161-1.661,2.161-2.42,11.274c-0.872-2.584-1.81-5.139-2.71-7.785c-0.893,4.392-1.625,9.119-2.413,13.96h-3.096   c0.856-3.49,1.661-6.474,2.449-9.568h-2.167c-2.917,7.446-4.625,10.902-11.602,12.721c3.012-5.702,3.012-5.702,2.888-11.742   c-0.881-0.827-1.716-1.632-2.663-2.517c-2.384,12.587-9.271,21.729-23.388,15.892c5.649-4.785,5.649-4.785,9.063-10.96   c-7.411,0.152-11.259,10.115-20.508,4.205l-0.056-5.179h-2.598c-0.499-2.983-1.014-5.984-1.456-9.029c-0.9,0-1.753,0-2.634,0.49   c-7.262-17.259-12.178-27.2-7.252-46.322c11.266-8.702,12.966-10.109,11.475-23.033l-2.178,0.033l0.084,5.703h-3.048   c-0.479-2.196-0.965-4.408-0.985-6.097c-0.92-0.411-1.773-0.822-2.646-1.255c-0.329,8.252-0.329,8.252-1.979,13.488   c-1.343-2.173-2.693-4.368-3.602-6.08c-1.287,0.056-2.598,0.056-3.454,0.528c1.351,2.477,2.686,6.074,4.447,9.435   c-0.853,0.451-1.717,0.991-2.139,1.824c-3.526-2.612-5.289-4.261-10.073-4.261c-0.414,2.189-0.414,2.189,5.375,9.457   c-2.609,0-5.247,0.483-7.852,1.03c2.682,3.715,2.682,3.715,6.67,5.421l0.017,2.629c-1.717,0.467-3.49,1.368-4.773,2.251   c1.323,2.139,1.323,2.139,3.884,1.684c0.084,0.851,0.084,1.768,0.515,3.022c-3.434,3.136-6.848,6.176-10.321,9.271   c2.6-0.507,5.656-0.507,8.744-0.643c0.459,1.785,0.459,1.785-8.21,8.371c0.884,2.122,4.016,2.1,4.418,3.399   c-5.598,3.092-18.254,6.3-18.677,7.628c10.527-0.163,18.677-7.628,27.02-7.65c-3.49,2.945-6.474,6.119-9.513,9.137   c-13.077,0.619-23.614-0.585-34.033,4.784c12.698-0.186,34.624,4.729,44.089-4.914c1.81,3.372,3.611,7.279,2.775,11.241   c-18.198,8.928-35.628,12.57-55.263,14.557C202.611,302.23,173.137,287.916,182.996,277.806L182.996,277.806z M342.067,335.03   L342.067,335.03c-51.491,5.365-103.884,7.386-155.367,11.534c-43.853-8.983-85.469-15.738-130.074-19.888   c0.33-3.483,0.724-6.94,1.089-10.396c21.855-0.293,42.043,6.383,63.122,11.28c24.523,1.328,24.523,1.328,31.97,3.377   c0,1.368-3.085,1.391-3.04,3.17c24.515,1.367,48.182,5.381,73.051,5.065c-25.798-0.523-45.122-7.239-70.132-13.448   c-10.471-0.214-20.543-0.489-30.612-0.899c-20.185-7.025-41.255-13.589-62.617-10.758c9.767-20.051,14.29-39.206,18.238-61.272   c-2.251-68.781-2.251-68.781-1.286-92.175c-4.897-33.284-4.897-33.284-3.583-33.679c12.842,12.835,23.461,19.567,31.876-1.294   l2.606-0.035c6.333-11.427,6.333-11.427,13.949-32.705c1.202,18.199-0.037,26.884,0.815,83.097   c2.919,18.609,7.516,34.636,7.13,37.596l3.011-0.04c1.407,4.728,2.778,9.946,4.138,15.542c9.746,4.649,18.604,41.688,28.837,54.106   h3.057c4.616,18.12,38.041,28.5,54.185,30.858c-0.43-1.7-0.506-3.484-0.506-4.796c16.549-2.364,36.144-11.675,51.821-11.916   c16.35,10.188,24.221,9.136,43.414,8.933c6.912-3.996,14.314-7.565,21.669-11.129v-2.605l2.609-0.04   c1.199,21.632,1.199,21.632,3.47,28.483c-8.303,2.364-16.558,4.616-24.801,6.867c17.438-1.521,17.438-1.521,27.033-4.672   c3.087,2.173,6.606,4.238,10.152,6.395C355.127,331.727,355.127,331.727,342.067,335.03L342.067,335.03z M362.414,320.885   L362.414,320.885c-8.862-6.456-8.862-6.456-10.214-9.929c1.239-2.584,2.541-4.729,4.278-6.958   c2.269,7.785,5.374,10.769,11.602,15.885C365.847,319.883,364.113,320.356,362.414,320.885L362.414,320.885z M367.302,268.879   L367.302,268.879c-4.522-36.364-13.321-71.709-18.218-107.566c-12.326-34.427-12.326-34.427-26.772-66.699   c-8.978-14.185-17.889-27.919-26.831-41.705c-0.113-5.123-2.787-9.401-5.42-13.719c30.776-15.119,69.071-27.39,103.955-27.858   c-43.496,12.289-43.496,12.289-65.664,19.983c0.149,9.964,9.083,24.127,13.181,33.583   C360.379,127.786,377.303,203.79,367.302,268.879L367.302,268.879z M377.52,250.071L377.52,250.071   c-0.901-60.168-3.051-114.185-20.94-172.361c-4.971-10.746-19.285-32.739-17.259-44.352c42.57-17.467,100.918-32.136,146.418-27.47   c-34.9,5.105-71.084,10.319-104.555,22.55c0.342,21.183,5.585,49.271,7.627,71.692c-1.446,47.734-1.584,97.433-7.892,144.261   C379.63,246.176,378.363,247.899,377.52,250.071L377.52,250.071z M387.227,314.862L387.227,314.862   c0.403-3.474,0.793-6.907,1.584-10.02c0.435,1.385,0.882,3.112,1.867,4.857C389.346,311.355,388.06,313.168,387.227,314.862   L387.227,314.862z M771.682,310.956L771.682,310.956c-9.529,2.797-26,11.24-36.471,14.28   c-70.672,8.365-140.9,17.146-212.119,19.358c-15.762-1.424-31.465-3.04-46.795-4.576c-75.355-12.834-75.355-12.834-75.389-14.067   c36.077-13.526,71.581-7.43,108.731-7.96c10.393-3.563,10.393-3.563,17.299-8.967c14.016,0.248,28.443,0.541,42.043,3.789   c49.793-2.365,102.775-20.861,125.707-68.253l3.074-0.078c4.582-15.21,8.297-29.553,10.244-44.746   c-3.41-23.304-6.787-46.208-9.754-69.057c10.801,23.203,28.742,24.29,44.238,5.792c6.248-15.158,13.51-28.235,21.953-50.037   c-8.668,62.477-22.59,129.288-7.17,191.855c1.783,3.006,4.051,6.423,6.246,9.834c-4.818,2.702-9.568,5.78-13.842,8.798   c-2.797,17.394-20.77,16.831-34.656,20.018c10.098-0.163,27.469-3.372,30.469-5.156c9.777-17.467,8.461-17.467,28.635-15.12   C773.314,301.448,772.549,306.228,771.682,310.956L771.682,310.956z M538.629,6.869L538.629,6.869   c1.801,3.36,1.801,3.36,1.498,7.712c-9.193,4.498-24.504,4.688-35.014,5.268c-21.723,5.54-43.469,10.904-65.213,16.381   c-0.945-1.199-1.391-2.46-1.857-3.845c-0.41,1.756-0.777,3.524-1.221,5.235c-3.047,0.518-6.125,0.934-8.707,1.48   c-7.258,68.798-18.986,133.904-36.352,200.805c5.223-62.792,9.482-126.957,0.706-189.98c-3.225-7.729-4.981-10.774-2.971-19.415   C439.162,15.965,486.617,5.889,538.629,6.869L538.629,6.869z"></path><polygon points="697.311,128.011 697.311,128.011 696,128.011 695.961,126.345 697.311,126.345 697.311,128.011  "></polygon><polygon points="333.118,206.548 333.118,206.548 333.185,207.82 331.429,207.922 331.429,206.548 333.118,206.548  "></polygon></g></svg>